# xmcd
#
# Track frame offsets:
#  150
#  16148
#  24746
#  44032
#  59916
#  65459
#  79694
#  100666
#  116600
#  131329
#  139689
#  154415
#  167294
#  182905
#  203960
#
# Disc length: 3287 seconds
#
# Revision: 0
# Processed by: cddbd v1.5.1PL2 Copyright (c) Steve Scherf et al.
# Submitted via: Collectorz.com_Music_Collector 6.11
#
DISCID=d00cd50f
DTITLE=Todd Snider - Maintenance Shop, Ames 26/10/2001 [CD1)
DYEAR=2001
DGENRE=Alt Country
TTITLE0=Vinyl Records
TTITLE1=Intro To Lonely Girl
TTITLE2=Lonely Girl
TTITLE3=Horseshoe Lake
TTITLE4=Intro To Statistician's Blues
TTITLE5=Statistician's Blues
TTITLE6=Happy Birthday/Intro To Late Last Night
TTITLE7=Late Last Night
TTITLE8=D.B. Cooper
TTITLE9=Intro To It's Hard Enough
TTITLE10=It's Hard Enough
TTITLE11=Trouble
TTITLE12=My Generation P. 2
TTITLE13=Easy Money > It's Only Rock 'n Roll
TTITLE14=Moondawg's Tavern With Digger Dave Story
EXTD=
EXTT0=
EXTT1=
EXTT2=
EXTT3=
EXTT4=
EXTT5=
EXTT6=
EXTT7=
EXTT8=
EXTT9=
EXTT10=
EXTT11=
EXTT12=
EXTT13=
EXTT14=
PLAYORDER=
